<svg width="500" height="501" viewBox="0 0 500 501" fill="none" xmlns="http://www.w3.org/2000/svg">
<path d="M144.572 419.097C116.603 416.864 91.6686 416.35 67.2979 412.057C59.9738 410.812 50.8626 401.111 48.3909 393.427C37.2466 359.088 41.5395 324.748 56.0227 293.241C39.5014 275.17 23.5427 258.214 8.32221 240.787C-2.25868 228.854 -2.90809 217.393 7.28121 203.228C26.6169 176.275 39.5005 164.424 82.2576 142.232C83.7752 117.207 85.0759 93.341 86.5945 69.479C87.5056 55.3572 95.9176 48.8739 109.446 45.6132C141.752 37.7578 162.089 39.3467 209.92 55.1833C227.526 39.2158 244.177 23.8488 261.133 8.82465C275.053 -3.3656 288.366 -2.42128 303.417 8.56684C332.909 30.0294 345.48 45.0096 365.384 88.3205C388.235 90.3381 410.483 90.6389 431.905 95.0167C439.927 96.6905 449.597 106.735 452.285 114.938C462.552 146.984 459.925 181.77 444.961 211.909L492.662 265.05C503.589 277.112 501.334 287.886 492.315 300.721C471.847 329.48 460.789 339.353 418.596 360.601C417.252 384.638 416.168 407.818 414.65 430.997C413.739 444.776 406.498 451.901 392.231 455.035C361.876 461.688 347.522 461.089 293.578 445.977C275.972 461.859 259.496 477.398 242.235 492.078C230.223 502.38 218.298 502.638 204.118 492.851C175.62 473.011 154.546 448.071 144.572 419.097Z" fill="white"/>
</svg>
